<?xml version="1.0" encoding="UTF-8"?>
<svg id="Layer_1" xmlns="http://www.w3.org/2000/svg" version="1.1" viewBox="0 0 800 700">
  <!-- Generator: Adobe Illustrator 29.1.0, SVG Export Plug-In . SVG Version: 2.1.0 Build 142)  -->
  <defs>
    <style>
      .st0 {
        fill: #014576;
      }

      .st1 {
        fill: #01a7e3;
      }
    </style>
  </defs>
  <path class="st0" d="M164.41,391.24c-4.4,0-8.28-.79-11.64-2.36-3.36-1.57-6-3.82-7.9-6.75-1.9-2.93-2.85-6.46-2.85-10.59v-2.28h10.58v2.28c0,3.42,1.06,5.98,3.18,7.69,2.11,1.71,4.99,2.57,8.63,2.57s6.45-.73,8.26-2.2c1.82-1.47,2.72-3.34,2.72-5.62,0-1.57-.45-2.85-1.34-3.82-.89-.98-2.2-1.78-3.91-2.4-1.71-.62-3.78-1.21-6.23-1.75l-1.87-.41c-3.91-.87-7.26-1.97-10.05-3.3-2.79-1.33-4.94-3.08-6.43-5.25-1.5-2.17-2.24-5-2.24-8.47s.83-6.45,2.48-8.92c1.65-2.47,3.99-4.37,7-5.7,3.01-1.33,6.55-1.99,10.63-1.99s7.69.69,10.86,2.08c3.18,1.38,5.67,3.44,7.49,6.19,1.81,2.74,2.72,6.17,2.72,10.3v2.44h-10.58v-2.44c0-2.17-.42-3.92-1.26-5.25-.84-1.33-2.05-2.31-3.63-2.93-1.57-.62-3.44-.94-5.61-.94-3.26,0-5.66.61-7.21,1.84-1.55,1.22-2.32,2.89-2.32,5.01,0,1.41.37,2.61,1.1,3.58.73.97,1.83,1.79,3.3,2.44,1.47.65,3.34,1.22,5.62,1.71l1.87.41c4.07.87,7.61,1.98,10.63,3.34,3.01,1.36,5.36,3.15,7.04,5.38,1.68,2.23,2.53,5.08,2.53,8.55s-.88,6.53-2.65,9.16c-1.77,2.63-4.27,4.7-7.49,6.19-3.23,1.49-7.04,2.24-11.44,2.24Z"/>
  <path class="st0" d="M206.51,390.1c-2.66,0-4.82-.83-6.47-2.48-1.65-1.66-2.48-3.87-2.48-6.64v-22.79h-10.09v-8.47h10.09v-12.54h10.26v12.54h11.07v8.47h-11.07v21c0,1.63.76,2.44,2.28,2.44h7.82v8.47h-11.4Z"/>
  <path class="st0" d="M237.43,391.24c-2.88,0-5.45-.5-7.73-1.51-2.28-1-4.08-2.47-5.42-4.4-1.33-1.93-1.99-4.27-1.99-7.04s.66-5.09,1.99-6.96c1.33-1.87,3.18-3.28,5.54-4.23,2.36-.95,5.06-1.43,8.1-1.43h11.07v-2.28c0-1.9-.59-3.46-1.79-4.68-1.2-1.22-3.09-1.83-5.7-1.83s-4.45.58-5.7,1.75c-1.25,1.17-2.06,2.67-2.44,4.52l-9.44-3.18c.65-2.06,1.69-3.95,3.13-5.66,1.44-1.7,3.36-3.09,5.78-4.15,2.42-1.05,5.36-1.59,8.84-1.59,5.32,0,9.52,1.33,12.61,3.99,3.1,2.66,4.64,6.51,4.64,11.56v15.06c0,1.63.76,2.44,2.28,2.44h3.26v8.47h-6.84c-2.01,0-3.66-.49-4.97-1.47-1.3-.97-1.95-2.28-1.95-3.91v-.08h-1.55c-.22.65-.71,1.51-1.47,2.57-.76,1.06-1.95,1.99-3.58,2.81-1.63.81-3.86,1.22-6.68,1.22ZM239.23,382.94c2.87,0,5.22-.8,7.04-2.4,1.82-1.6,2.72-3.73,2.72-6.39v-.82h-10.34c-1.9,0-3.39.41-4.47,1.22-1.09.82-1.63,1.95-1.63,3.42s.57,2.66,1.71,3.58c1.14.92,2.79,1.38,4.97,1.38Z"/>
  <path class="st0" d="M273.09,406.38v-8.95h21.98c1.52,0,2.28-.82,2.28-2.45v-10.17h-1.47c-.43.92-1.11,1.85-2.03,2.76-.92.92-2.17,1.69-3.74,2.28s-3.58.89-6.03.89c-3.14,0-5.9-.72-8.26-2.16-2.36-1.44-4.2-3.43-5.49-5.98-1.3-2.55-1.95-5.48-1.95-8.79v-24.1h10.25v23.29c0,3.04.75,5.32,2.24,6.84,1.49,1.52,3.62,2.28,6.39,2.28,3.15,0,5.59-1.05,7.32-3.14,1.74-2.09,2.61-5.01,2.61-8.75v-20.52h10.26v47.55c0,2.76-.81,4.98-2.44,6.63-1.63,1.65-3.8,2.48-6.51,2.48h-25.4Z"/>
  <path class="st0" d="M327.8,390.1l14.98-56.99h18.73l14.98,56.99h-11.07l-3.09-12.54h-20.36l-3.09,12.54h-11.07ZM344.49,367.63h15.31l-6.92-27.76h-1.46l-6.92,27.76Z"/>
  <path class="st1" d="M383.65,390.1l-5.7-40.38h10.17l3.59,33.46h1.47l5.21-33.46h16.45l5.21,33.46h1.47l3.58-33.46h10.18l-5.7,40.38h-17.02l-5.21-33.46h-1.46l-5.21,33.46h-17.02Z"/>
  <path class="st0" d="M440.96,390.1v-56.99h10.26v21.58h1.47c.43-.87,1.11-1.74,2.03-2.61.92-.87,2.16-1.59,3.7-2.16,1.55-.57,3.51-.86,5.9-.86,3.15,0,5.9.72,8.26,2.16,2.36,1.44,4.19,3.42,5.49,5.94,1.3,2.53,1.95,5.47,1.95,8.84v24.1h-10.26v-23.28c0-3.04-.75-5.32-2.24-6.84-1.5-1.52-3.63-2.28-6.4-2.28-3.14,0-5.59,1.04-7.32,3.13-1.74,2.09-2.61,5.01-2.61,8.75v20.52h-10.26Z"/>
  <rect class="st1" x="487.86" y="349.72" width="10.26" height="40.38"/>
  <path class="st0" d="M506.25,390.1v-56.99h10.26v56.99h-10.26Z"/>
  <path class="st0" d="M543.05,391.24c-4.02,0-7.56-.86-10.62-2.57-3.07-1.7-5.45-4.12-7.17-7.24-1.71-3.12-2.57-6.8-2.57-11.03v-.98c0-4.23.84-7.91,2.53-11.03,1.68-3.12,4.04-5.53,7.08-7.24,3.04-1.71,6.57-2.57,10.58-2.57s7.41.88,10.34,2.65c2.93,1.77,5.21,4.21,6.84,7.33,1.63,3.12,2.44,6.74,2.44,10.86v3.5h-29.39c.11,2.77,1.14,5.02,3.09,6.76,1.95,1.74,4.34,2.61,7.17,2.61s4.99-.62,6.35-1.87c1.35-1.25,2.38-2.63,3.09-4.15l8.38,4.4c-.76,1.41-1.86,2.95-3.3,4.6-1.44,1.65-3.35,3.06-5.74,4.23-2.39,1.17-5.43,1.75-9.12,1.75ZM533.2,365.27h18.89c-.22-2.33-1.16-4.2-2.81-5.61-1.66-1.41-3.82-2.12-6.47-2.12s-4.97.71-6.59,2.12c-1.63,1.41-2.63,3.29-3.01,5.61Z"/>
  <path class="st1" d="M568.04,390.1v-56.99h35.82v9.77h-25.07v13.76h23.12v9.77h-23.12v23.69h-10.75Z"/>
  <rect class="st1" x="608.58" y="349.72" width="10.26" height="40.38"/>
  <circle class="st1" cx="613.71" cy="338.38" r="6.28"/>
  <path class="st0" d="M626.87,337.83c-.35-3.4-1.84-6.56-4.25-8.97-2.13-2.13-4.78-3.52-7.72-4.06v-11.4c5.88.66,11.38,3.3,15.59,7.52,4.56,4.56,7.24,10.54,7.6,16.92h-11.22Z"/>
  <path class="st0" d="M657.97,337.99c-.81-11.55-5.71-22.37-13.91-30.57-7.88-7.88-18.26-12.74-29.32-13.8v11.23c8.06.99,15.62,4.67,21.39,10.43,6.1,6.1,9.83,14.13,10.62,22.7h11.23Z"/>
  <circle class="st1" cx="492.98" cy="338.38" r="6.28"/>
</svg>